<?xml version="1.0" encoding="UTF-8"?>
<!-- Generated by Pixelmator Pro 3.7 -->
<svg width="6250" height="847" viewBox="0 0 6250 847" xmlns="http://www.w3.org/2000/svg">
    <g id="Laag-1">
        <g id="Group">
            <g id="g1">
                <path id="Path" fill="#1c1a26" stroke="none" d="M 1249.466187 119.218689 L 1355.567627 119.218689 L 1355.567627 375.116455 L 1656.934814 375.116455 L 1656.934814 119.218689 L 1762.145142 119.218689 L 1762.145142 734.434753 L 1656.934814 734.434753 L 1656.934814 474.977356 L 1355.567627 474.977356 L 1355.567627 734.434753 L 1249.466187 734.434753 L 1249.466187 119.218689 Z"/>
                <path id="path1" fill="#1c1a26" stroke="none" d="M 1867.31897 569.487793 L 1867.31897 279.71344 L 1967.180542 279.71344 L 1967.180542 540.063477 C 1967.180542 605.149536 2009.085327 648.839844 2073.278076 648.839844 C 2141.043213 648.839844 2186.514404 604.256958 2186.514404 538.278198 L 2186.514404 279.71344 L 2286.376221 279.71344 L 2286.376221 734.434753 L 2186.514404 734.434753 L 2186.514404 678.264099 C 2151.742676 721.954102 2101.809814 745.135254 2041.181641 745.135254 C 1936.86438 745.135254 1867.31897 675.586182 1867.31897 569.487793 Z"/>
                <path id="path2" fill="#1c1a26" stroke="none" d="M 2385.22876 279.71344 L 2485.090332 279.71344 L 2485.090332 332.318848 C 2518.9729 291.301453 2567.119629 269.012695 2625.963623 269.012695 C 2694.619873 269.012695 2747.226074 300.216919 2773.97168 351.929718 C 2808.747559 298.436951 2864.025146 269.012695 2934.46167 269.012695 C 3035.214355 269.012695 3102.08667 336.776733 3102.08667 439.309937 L 3102.08667 734.434753 L 3002.224854 734.434753 L 3002.224854 468.734222 C 3002.224854 406.320679 2962.993652 365.30838 2901.472168 365.30838 C 2837.277344 365.30838 2793.588379 407.213318 2793.588379 470.519501 L 2793.588379 734.434753 L 2693.726807 734.434753 L 2693.726807 468.734222 C 2693.726807 406.320679 2654.495361 365.30838 2592.974121 365.30838 C 2528.78125 365.30838 2485.090332 407.213318 2485.090332 470.519501 L 2485.090332 734.434753 L 2385.22876 734.434753 L 2385.22876 279.71344 Z"/>
                <path id="path3" fill="#1c1a26" stroke="none" d="M 3175.151855 608.714783 C 3175.151855 527.582764 3236.673096 470.519501 3341.881592 470.519501 L 3483.649902 470.519501 L 3483.649902 440.202576 C 3483.649902 390.26947 3444.418457 358.172852 3385.568359 358.172852 C 3331.184082 358.172852 3291.950684 386.704498 3291.950684 421.479034 L 3192.091064 421.479034 C 3192.091064 333.206177 3270.553711 269.012695 3385.568359 269.012695 C 3504.155762 269.012695 3583.511475 336.776733 3583.511475 439.309937 L 3583.511475 734.434753 L 3483.649902 734.434753 L 3483.649902 692.530029 C 3452.440674 725.519043 3402.513916 745.135254 3340.992432 745.135254 C 3241.130859 745.135254 3175.151855 692.530029 3175.151855 608.714783 Z M 3483.649902 575.725281 L 3483.649902 549.871582 L 3357.929688 549.871582 C 3306.216553 549.871582 3277.686768 570.375061 3277.686768 602.47699 C 3277.686768 637.24646 3312.460449 661.32019 3371.304443 661.32019 C 3437.285645 661.32019 3483.649902 630.116272 3483.649902 575.725281 Z"/>
                <path id="path4" fill="#1c1a26" stroke="none" d="M 3679.330566 279.71344 L 3779.192383 279.71344 L 3779.192383 337.664032 C 3815.746338 293.086487 3868.352539 269.012695 3932.55127 269.012695 C 4040.435059 269.012695 4112.655762 340.341949 4112.655762 448.225403 L 4112.655762 734.434753 L 4012.796143 734.434753 L 4012.796143 481.214905 C 4012.796143 411.670929 3968.212158 365.30838 3899.559814 365.30838 C 3827.338867 365.30838 3779.192383 412.563568 3779.192383 483.000183 L 3779.192383 734.434753 L 3679.330566 734.434753 L 3679.330566 279.71344 Z"/>
                <path id="path5" fill="#1c1a26" stroke="none" d="M 4207.048828 279.71344 L 4306.910156 279.71344 L 4306.910156 332.318848 C 4340.792969 291.301453 4388.939453 269.012695 4447.783691 269.012695 C 4516.439941 269.012695 4569.046387 300.216919 4595.791992 351.929718 C 4630.56543 298.436951 4685.845215 269.012695 4756.281738 269.012695 C 4857.034668 269.012695 4923.906738 336.776733 4923.906738 439.309937 L 4923.906738 734.434753 L 4824.044922 734.434753 L 4824.044922 468.734222 C 4824.044922 406.320679 4784.813477 365.30838 4723.291992 365.30838 C 4659.097656 365.30838 4615.408691 407.213318 4615.408691 470.519501 L 4615.408691 734.434753 L 4515.546875 734.434753 L 4515.546875 468.734222 C 4515.546875 406.320679 4476.31543 365.30838 4414.793945 365.30838 C 4350.599121 365.30838 4306.910156 407.213318 4306.910156 470.519501 L 4306.910156 734.434753 L 4207.048828 734.434753 L 4207.048828 279.71344 Z"/>
                <path id="path6" fill="#1c1a26" stroke="none" d="M 4996.97168 608.714783 C 4996.97168 527.582764 5058.493164 470.519501 5163.70166 470.519501 L 5305.469727 470.519501 L 5305.469727 440.202576 C 5305.469727 390.26947 5266.23877 358.172852 5207.388672 358.172852 C 5153.003906 358.172852 5113.770508 386.704498 5113.770508 421.479034 L 5013.911133 421.479034 C 5013.911133 333.206177 5092.371582 269.012695 5207.388672 269.012695 C 5325.975586 269.012695 5405.331543 336.776733 5405.331543 439.309937 L 5405.331543 734.434753 L 5305.469727 734.434753 L 5305.469727 692.530029 C 5274.260742 725.519043 5224.332031 745.135254 5162.8125 745.135254 C 5062.950684 745.135254 4996.97168 692.530029 4996.97168 608.714783 Z M 5305.469727 575.725281 L 5305.469727 549.871582 L 5179.749512 549.871582 C 5128.036621 549.871582 5099.504883 570.375061 5099.504883 602.47699 C 5099.504883 637.24646 5134.280762 661.32019 5193.122559 661.32019 C 5259.105469 661.32019 5305.469727 630.116272 5305.469727 575.725281 Z"/>
                <path id="path7" fill="#1c1a26" stroke="none" d="M 5501.150879 279.71344 L 5601.012207 279.71344 L 5601.012207 355.500275 C 5636.67334 303.787231 5689.279297 272.577881 5753.478027 272.577881 L 5769.526367 272.577881 L 5769.526367 375.116455 L 5753.478027 375.116455 C 5657.183105 375.116455 5601.012207 429.501831 5601.012207 513.311768 L 5601.012207 734.434753 L 5501.150879 734.434753 L 5501.150879 279.71344 Z"/>
                <path id="path8" fill="#1c1a26" stroke="none" d="M 5817.566895 92.47229 L 5917.428711 92.47229 L 5917.428711 488.350403 L 6116.258789 279.71344 L 6242.866211 279.71344 L 6047.602539 482.107544 L 6249.999023 734.434753 L 6121.607422 734.434753 L 5978.059082 555.221802 L 5917.428711 618.522888 L 5917.428711 734.434753 L 5817.566895 734.434753 L 5817.566895 92.47229 Z"/>
            </g>
            <g id="g2">
                <path id="path9" fill="#7c63ff" stroke="none" d="M 473.367523 406.643921 C 585.741394 406.643921 676.83429 315.548706 676.83429 203.177124 C 676.83429 90.805542 585.741394 -0.289673 473.367523 -0.289673 C 360.995697 -0.289673 269.900726 90.805542 269.900726 203.177124 C 269.900726 315.548706 360.995697 406.643921 473.367523 406.643921 Z"/>
                <path id="path10" fill="#7c63ff" stroke="none" d="M 744.453125 474.264252 C 672.045105 546.674805 575.772278 586.553711 473.365479 586.553711 C 370.964752 586.553711 274.689941 546.674805 202.279861 474.264252 L -0.000816 676.540344 C 81.708984 758.251709 180.834152 816.197937 288.988434 846.999878 C 321.412354 777.653259 391.761475 729.586548 473.365479 729.586548 C 554.975586 729.586548 625.322693 777.653259 657.744568 846.999878 C 765.900879 816.19696 865.028076 758.251709 946.73584 676.540344 L 744.453125 474.264252 Z"/>
            </g>
        </g>
    </g>
</svg>
